<?xml version="1.0" encoding="UTF-8"?>
<svg id="Layer_1" xmlns="http://www.w3.org/2000/svg" version="1.1" viewBox="0 0 96 96">
  <!-- Generator: Adobe Illustrator 29.8.1, SVG Export Plug-In . SVG Version: 2.1.1 Build 2)  -->
  <defs>
    <style>
      .st0 {
        fill: #fff;
      }

      .st1 {
        fill: teal;
      }
    </style>
  </defs>
  <circle class="st1" cx="48" cy="48" r="48"/>
  <g>
    <path class="st0" d="M36.94,59.26l-6.58-11.93h-1.85v11.93h-7.7v-31.61h12.93c2.49,0,4.62.44,6.37,1.31,1.76.87,3.07,2.06,3.94,3.58.87,1.52,1.31,3.21,1.31,5.07,0,2.1-.59,3.98-1.78,5.63-1.19,1.65-2.94,2.82-5.25,3.51l7.3,12.52h-8.69ZM28.52,41.87h4.77c1.41,0,2.47-.34,3.17-1.04.71-.69,1.06-1.67,1.06-2.93s-.35-2.15-1.06-2.84c-.71-.69-1.76-1.04-3.17-1.04h-4.77v7.84Z"/>
    <path class="st0" d="M60.99,34.85c1.32-.72,2.87-1.08,4.64-1.08,2.07,0,3.95.53,5.63,1.58,1.68,1.05,3.01,2.55,3.99,4.5.97,1.95,1.46,4.22,1.46,6.8s-.49,4.86-1.46,6.82c-.98,1.97-2.3,3.48-3.99,4.55-1.68,1.07-3.56,1.6-5.63,1.6-1.74,0-3.28-.36-4.62-1.08-1.34-.72-2.38-1.65-3.13-2.79v15.49h-7.7v-37.11h7.7v3.56c.75-1.17,1.79-2.12,3.11-2.84ZM67.28,42.12c-1.07-1.1-2.38-1.64-3.94-1.64s-2.83.56-3.9,1.67c-1.07,1.11-1.6,2.63-1.6,4.55s.53,3.44,1.6,4.55c1.07,1.11,2.36,1.67,3.9,1.67s2.84-.56,3.92-1.69c1.08-1.12,1.62-2.65,1.62-4.57s-.53-3.43-1.6-4.53Z"/>
  </g>
</svg>